<svg width="28" height="28" viewBox="0 0 28 28" fill="none" xmlns="http://www.w3.org/2000/svg">
<path fill-rule="evenodd" clip-rule="evenodd" d="M23.8 14C23.8 14.2785 23.6894 14.5456 23.4925 14.7425C23.2956 14.9394 23.0285 15.05 22.75 15.05L7.85681 15.05L13.678 20.594C13.869 20.7892 13.9764 21.0511 13.9775 21.3241C13.9785 21.5972 13.8732 21.8599 13.6838 22.0566C13.4944 22.2533 13.2358 22.3685 12.9629 22.3777C12.69 22.3869 12.4243 22.2895 12.222 22.106L4.52201 14.756C4.42039 14.6581 4.33956 14.5406 4.28435 14.4107C4.22914 14.2808 4.20068 14.1412 4.20068 14C4.20068 13.8589 4.22914 13.7192 4.28435 13.5893C4.33956 13.4594 4.42039 13.342 4.52201 13.244L12.222 5.89401C12.3203 5.79356 12.4377 5.71386 12.5674 5.65963C12.697 5.60541 12.8362 5.57775 12.9767 5.5783C13.1172 5.57886 13.2562 5.60762 13.3854 5.66287C13.5146 5.71812 13.6314 5.79875 13.7289 5.89997C13.8264 6.00119 13.9025 6.12095 13.9529 6.25215C14.0032 6.38334 14.0267 6.52331 14.022 6.66375C14.0172 6.8042 13.9843 6.94226 13.9252 7.06976C13.8662 7.19726 13.7821 7.3116 13.678 7.40601L7.85681 12.95L22.75 12.95C23.0285 12.95 23.2956 13.0606 23.4925 13.2575C23.6894 13.4545 23.8 13.7215 23.8 14Z" fill="#31302E"/>
</svg>
