<svg width="25" height="25" viewBox="0 0 25 25" fill="none" xmlns="http://www.w3.org/2000/svg">
<path fill-rule="evenodd" clip-rule="evenodd" d="M2.25 12.5C2.25 6.83908 6.83908 2.25 12.5 2.25C18.1609 2.25 22.75 6.83908 22.75 12.5C22.75 18.1609 18.1609 22.75 12.5 22.75C6.83908 22.75 2.25 18.1609 2.25 12.5ZM12.5 0.25C5.73451 0.25 0.25 5.73451 0.25 12.5C0.25 19.2655 5.73451 24.75 12.5 24.75C19.2655 24.75 24.75 19.2655 24.75 12.5C24.75 5.73451 19.2655 0.25 12.5 0.25ZM13.5 5.75C13.5 5.19772 13.0523 4.75 12.5 4.75C11.9477 4.75 11.5 5.19772 11.5 5.75V12.5C11.5 12.8788 11.714 13.225 12.0528 13.3944L16.5528 15.6444C17.0468 15.8914 17.6474 15.6912 17.8944 15.1972C18.1414 14.7032 17.9412 14.1026 17.4472 13.8556L13.5 11.882V5.75Z" fill="#31302E"/>
</svg>
 