<svg width="30" height="30" viewBox="0 0 30 30" fill="none" xmlns="http://www.w3.org/2000/svg">
<path d="M25.3125 8.43749H21.2016C21.2473 8.39882 21.2941 8.36132 21.3387 8.3203C21.6946 8.0041 21.9814 7.61787 22.1812 7.18575C22.3811 6.75364 22.4896 6.28494 22.5 5.80897C22.5154 5.28828 22.4242 4.76993 22.232 4.28575C22.0398 3.80158 21.7507 3.36179 21.3824 2.99339C21.0141 2.62498 20.5744 2.33574 20.0903 2.14342C19.6062 1.9511 19.0879 1.85975 18.5672 1.87499C18.091 1.88524 17.6221 1.99368 17.1898 2.19351C16.7574 2.39334 16.371 2.68026 16.0547 3.03632C15.617 3.54361 15.2611 4.11613 15 4.73319C14.7389 4.11613 14.383 3.54361 13.9453 3.03632C13.629 2.68026 13.2426 2.39334 12.8102 2.19351C12.3779 1.99368 11.909 1.88524 11.4328 1.87499C10.9121 1.85975 10.3938 1.9511 9.90967 2.14342C9.42555 2.33574 8.98585 2.62498 8.61756 2.99339C8.24926 3.36179 7.96015 3.80158 7.76798 4.28575C7.5758 4.76993 7.48461 5.28828 7.5 5.80897C7.51042 6.28494 7.61893 6.75364 7.81876 7.18575C8.01858 7.61787 8.30542 8.0041 8.66133 8.3203C8.70586 8.35897 8.75273 8.39647 8.79844 8.43749H4.6875C4.19022 8.43749 3.71331 8.63503 3.36167 8.98666C3.01004 9.33829 2.8125 9.81521 2.8125 10.3125V14.0625C2.8125 14.5598 3.01004 15.0367 3.36167 15.3883C3.71331 15.7399 4.19022 15.9375 4.6875 15.9375V23.4375C4.6875 23.9348 4.88504 24.4117 5.23667 24.7633C5.58831 25.1149 6.06522 25.3125 6.5625 25.3125H23.4375C23.9348 25.3125 24.4117 25.1149 24.7633 24.7633C25.115 24.4117 25.3125 23.9348 25.3125 23.4375V15.9375C25.8098 15.9375 26.2867 15.7399 26.6383 15.3883C26.99 15.0367 27.1875 14.5598 27.1875 14.0625V10.3125C27.1875 9.81521 26.99 9.33829 26.6383 8.98666C26.2867 8.63503 25.8098 8.43749 25.3125 8.43749ZM17.4609 4.2785C17.6094 4.11458 17.7901 3.98312 17.9918 3.89237C18.1934 3.80162 18.4117 3.75354 18.6328 3.75116H18.6902C18.9494 3.75278 19.2057 3.80612 19.444 3.90804C19.6823 4.00997 19.8978 4.15843 20.078 4.34473C20.2582 4.53104 20.3994 4.75143 20.4933 4.993C20.5873 5.23457 20.632 5.49246 20.625 5.75155C20.6226 5.97268 20.5745 6.19093 20.4838 6.3926C20.393 6.59426 20.2616 6.77499 20.0977 6.92343C18.9855 7.9078 17.1398 8.25468 15.9961 8.37655C16.1367 7.13554 16.5234 5.33202 17.4609 4.2785ZM9.95039 4.32069C10.3136 3.95752 10.8055 3.75241 11.3191 3.74999H11.3766C11.5977 3.75237 11.8159 3.80045 12.0176 3.8912C12.2193 3.98195 12.4 4.11341 12.5484 4.27733C13.5316 5.38827 13.8785 7.23046 14.0004 8.36952C12.8613 8.25233 11.0191 7.90077 9.9082 6.91757C9.74428 6.76913 9.61282 6.5884 9.52207 6.38674C9.43132 6.18507 9.38324 5.96682 9.38086 5.74569C9.37359 5.48229 9.41991 5.22017 9.51701 4.97521C9.6141 4.73026 9.75995 4.50758 9.9457 4.32069H9.95039ZM4.6875 10.3125H14.0625V14.0625H4.6875V10.3125ZM6.5625 15.9375H14.0625V23.4375H6.5625V15.9375ZM23.4375 23.4375H15.9375V15.9375H23.4375V23.4375ZM25.3125 14.0625H15.9375V10.3125H25.3125V14.0625Z" fill="#31302E"/>
</svg>
