<svg width="32" height="32" viewBox="0 0 32 32" fill="none" xmlns="http://www.w3.org/2000/svg">
<path d="M5.33334 25.3334V13.3334C5.33334 12.9112 5.42801 12.5112 5.61734 12.1334C5.80668 11.7556 6.06757 11.4445 6.40001 11.2001L14.4 5.20008C14.8667 4.84453 15.4 4.66675 16 4.66675C16.6 4.66675 17.1333 4.84453 17.6 5.20008L25.6 11.2001C25.9333 11.4445 26.1947 11.7556 26.384 12.1334C26.5733 12.5112 26.6676 12.9112 26.6667 13.3334V25.3334C26.6667 26.0667 26.4053 26.6947 25.8827 27.2174C25.36 27.7401 24.7325 28.001 24 28.0001H20C19.6222 28.0001 19.3058 27.8721 19.0507 27.6161C18.7956 27.3601 18.6676 27.0436 18.6667 26.6667V20.0001C18.6667 19.6223 18.5387 19.3059 18.2827 19.0507C18.0267 18.7956 17.7102 18.6676 17.3333 18.6667H14.6667C14.2889 18.6667 13.9725 18.7947 13.7173 19.0507C13.4622 19.3067 13.3342 19.6232 13.3333 20.0001V26.6667C13.3333 27.0445 13.2053 27.3614 12.9493 27.6174C12.6933 27.8734 12.3769 28.001 12 28.0001H8.00001C7.26668 28.0001 6.63912 27.7392 6.11734 27.2174C5.59557 26.6956 5.33423 26.0676 5.33334 25.3334Z" fill="#31302E"/>
</svg>

