<svg width="20" height="20" viewBox="0 0 20 20" fill="none" xmlns="http://www.w3.org/2000/svg">
<path d="M15.8333 4.16666H4.16665C3.70641 4.16666 3.33331 4.53975 3.33331 4.99999V7.49999C3.33331 7.96023 3.70641 8.33332 4.16665 8.33332H15.8333C16.2935 8.33332 16.6666 7.96023 16.6666 7.49999V4.99999C16.6666 4.53975 16.2935 4.16666 15.8333 4.16666Z" stroke="#31302E" stroke-linejoin="round"/>
<path d="M15.8333 11.6667H4.16665C3.70641 11.6667 3.33331 12.0398 3.33331 12.5V15C3.33331 15.4602 3.70641 15.8333 4.16665 15.8333H15.8333C16.2935 15.8333 16.6666 15.4602 16.6666 15V12.5C16.6666 12.0398 16.2935 11.6667 15.8333 11.6667Z" stroke="#31302E" stroke-linejoin="round"/>
</svg>
