<svg width="38" height="38" viewBox="0 0 38 38" fill="none" xmlns="http://www.w3.org/2000/svg">
<path d="M35.8889 19C35.8889 15.6597 34.8984 12.3944 33.0426 9.61702C31.1868 6.83965 28.5492 4.67496 25.4631 3.39668C22.3771 2.1184 18.9813 1.78394 15.7052 2.43561C12.429 3.08727 9.41973 4.69578 7.05778 7.05773C4.69582 9.41968 3.08731 12.429 2.43565 15.7051C1.78399 18.9812 2.11845 22.377 3.39672 25.4631C4.67501 28.5491 6.8397 31.1868 9.61706 33.0426C12.3944 34.8984 15.6597 35.8889 19 35.8889C23.4792 35.8889 27.775 34.1095 30.9423 30.9422C34.1096 27.7749 35.8889 23.4792 35.8889 19ZM19.4539 27.4444C19.178 27.1624 19.0235 26.7835 19.0235 26.3889C19.0235 25.9943 19.178 25.6154 19.4539 25.3333L24.2778 20.4778L9.35225 20.4778C8.96032 20.4778 8.58444 20.3221 8.3073 20.0449C8.03016 19.7678 7.87447 19.3919 7.87447 19C7.87447 18.608 8.03016 18.2322 8.3073 17.955C8.58444 17.6779 8.96032 17.5222 9.35225 17.5222L24.13 17.5222L19.4539 12.8461C19.174 12.5661 19.0167 12.1864 19.0167 11.7905C19.0167 11.3946 19.174 11.0149 19.4539 10.735C19.7339 10.455 20.1136 10.2978 20.5095 10.2978C20.9054 10.2978 21.2851 10.455 21.565 10.735L29.8722 19.0844L21.5439 27.4444C21.4067 27.5817 21.2438 27.6905 21.0645 27.7648C20.8852 27.8391 20.693 27.8773 20.4989 27.8773C20.3048 27.8773 20.1127 27.8391 19.9334 27.7648C19.7541 27.6905 19.5911 27.5817 19.4539 27.4444Z" fill="#5A6334"/>
</svg>
