<svg width="23" height="23" viewBox="0 0 23 23" fill="none" xmlns="http://www.w3.org/2000/svg">
<path fill-rule="evenodd" clip-rule="evenodd" d="M14.5806 15.9511C12.8397 17.3421 10.6322 18.0137 8.41148 17.8279C6.19081 17.6422 4.12555 16.6132 2.63988 14.9523C1.1542 13.2913 0.360889 11.1246 0.422871 8.89703C0.484853 6.66946 1.39743 4.55018 2.97316 2.97444C4.5489 1.39871 6.66818 0.486135 8.89574 0.424153C11.1233 0.362171 13.2901 1.15548 14.951 2.64116C16.6119 4.12684 17.6409 6.19209 17.8267 8.41276C18.0124 10.6334 17.3408 12.8409 15.9498 14.5819L22.6096 21.2404C22.7048 21.3291 22.7811 21.4361 22.8341 21.5549C22.887 21.6738 22.9155 21.802 22.9178 21.9321C22.9201 22.0622 22.8962 22.1914 22.8475 22.312C22.7987 22.4326 22.7262 22.5422 22.6342 22.6342C22.5422 22.7262 22.4326 22.7987 22.312 22.8474C22.1914 22.8962 22.0622 22.9201 21.9321 22.9178C21.802 22.9155 21.6738 22.887 21.5549 22.8341C21.4361 22.7811 21.3291 22.7048 21.2405 22.6096L14.5806 15.9511ZM4.34288 13.9335C3.39485 12.9854 2.74916 11.7775 2.48741 10.4625C2.22567 9.1475 2.35962 7.78443 2.87233 6.54554C3.38504 5.30666 4.2535 4.24757 5.36796 3.50212C6.48242 2.75667 7.79284 2.35833 9.13363 2.35742C10.4744 2.35652 11.7854 2.7531 12.9008 3.49705C14.0163 4.241 14.8862 5.29892 15.4006 6.53711C15.9149 7.77531 16.0507 9.1382 15.7907 10.4535C15.5308 11.7689 14.8867 12.9776 13.94 13.927L13.9335 13.9335L13.927 13.9387C12.6549 15.2079 10.9309 15.9202 9.13389 15.9193C7.33685 15.9183 5.61368 15.2041 4.34288 13.9335Z" fill="#31302E"/>
</svg>
