<svg width="22" height="19" viewBox="0 0 22 19" fill="none" xmlns="http://www.w3.org/2000/svg">
<path fill-rule="evenodd" clip-rule="evenodd" d="M21.2071 6.20711C21.5976 5.81658 21.5976 5.18342 21.2071 4.79289L16.7071 0.292894C16.3166 -0.0976308 15.6834 -0.0976308 15.2929 0.292893C14.9024 0.683418 14.9024 1.31658 15.2929 1.70711L18.0858 4.5L10 4.5C9.44771 4.5 9 4.94772 9 5.5C9 6.05228 9.44771 6.5 10 6.5L18.0858 6.5L15.2929 9.29289C14.9024 9.68342 14.9024 10.3166 15.2929 10.7071C15.6834 11.0976 16.3166 11.0976 16.7071 10.7071L21.2071 6.20711ZM0.292894 14.2071C-0.0976306 13.8166 -0.0976307 13.1834 0.292894 12.7929L4.79289 8.29289C5.18342 7.90237 5.81658 7.90237 6.20711 8.29289C6.59763 8.68342 6.59763 9.31658 6.20711 9.70711L3.41421 12.5H11.5C12.0523 12.5 12.5 12.9477 12.5 13.5C12.5 14.0523 12.0523 14.5 11.5 14.5H3.41421L6.20711 17.2929C6.59763 17.6834 6.59763 18.3166 6.20711 18.7071C5.81658 19.0976 5.18342 19.0976 4.79289 18.7071L0.292894 14.2071Z" fill="#31302E"/>
</svg>
