<svg width="32" height="32" viewBox="0 0 32 32" fill="none" xmlns="http://www.w3.org/2000/svg">
<path d="M7.76664 21.3332L10.2666 23.8332C10.5111 24.0777 10.6333 24.3835 10.6333 24.7506C10.6333 25.1177 10.5111 25.4341 10.2666 25.6999C9.99997 25.9666 9.68353 26.0999 9.31731 26.0999C8.95108 26.0999 8.6342 25.9666 8.36664 25.6999L3.59997 20.9332C3.46664 20.7999 3.37197 20.6555 3.31597 20.4999C3.25997 20.3443 3.23286 20.1777 3.23464 19.9999C3.23464 19.8221 3.26264 19.6555 3.31864 19.4999C3.37464 19.3443 3.46842 19.1999 3.59997 19.0666L8.39997 14.2666C8.66664 13.9999 8.97775 13.8723 9.33331 13.8839C9.68886 13.8955 9.99997 14.0341 10.2666 14.2999C10.5111 14.5666 10.6391 14.8777 10.6506 15.2332C10.6622 15.5888 10.5342 15.8999 10.2666 16.1666L7.76664 18.6666H16C16.3778 18.6666 16.6946 18.7946 16.9506 19.0506C17.2066 19.3066 17.3342 19.623 17.3333 19.9999C17.3333 20.3777 17.2053 20.6946 16.9493 20.9506C16.6933 21.2066 16.3769 21.3341 16 21.3332H7.76664ZM24.2333 13.3332H16C15.6222 13.3332 15.3058 13.2052 15.0506 12.9492C14.7955 12.6932 14.6675 12.3768 14.6666 11.9999C14.6666 11.6221 14.7946 11.3057 15.0506 11.0506C15.3066 10.7955 15.6231 10.6675 16 10.6666H24.2333L21.7333 8.16657C21.4889 7.92212 21.3666 7.61679 21.3666 7.25057C21.3666 6.88435 21.4889 6.56746 21.7333 6.2999C22 6.03324 22.3169 5.8999 22.684 5.8999C23.0511 5.8999 23.3675 6.03324 23.6333 6.2999L28.4 11.0666C28.5333 11.1999 28.6275 11.3443 28.6826 11.4999C28.7377 11.6555 28.7658 11.8221 28.7666 11.9999C28.7666 12.1777 28.7386 12.3443 28.6826 12.4999C28.6266 12.6555 28.5324 12.7999 28.4 12.9332L23.6 17.7332C23.3333 17.9999 23.0222 18.1279 22.6666 18.1172C22.3111 18.1066 22 17.9675 21.7333 17.6999C21.4889 17.4332 21.3609 17.1221 21.3493 16.7666C21.3377 16.411 21.4657 16.0999 21.7333 15.8332L24.2333 13.3332Z" fill="#31302E"/>
</svg>
